# Blender v2.82 (sub 7) OBJ File: 'Cheese01.blend'
# www.blender.org
mtllib SlicedCheese01.mtl
o SlicedCheese01_Cube.001
v -1.284483 -1.000000 1.990588
v -1.313036 -0.910000 2.080588
v -1.378845 -0.910000 1.993900
v -1.297943 -0.987976 2.034924
v -1.330804 -0.987976 1.991637
v -1.341751 -0.976297 2.034064
v -1.355543 -0.910000 2.069613
v -1.308423 -0.954941 2.067959
v -1.349129 -0.953039 2.057322
v -1.365441 -0.954941 1.992852
v -1.379699 -0.910000 2.037793
v -1.366136 -0.953039 2.034920
v -1.313036 0.910000 2.080588
v -1.284483 1.000000 1.990588
v -1.378845 0.910000 1.993900
v -1.308423 0.954941 2.067959
v -1.355543 0.910000 2.069613
v -1.349129 0.953039 2.057322
v -1.330804 0.987976 1.991637
v -1.297943 0.987976 2.034924
v -1.341751 0.976297 2.034064
v -1.379699 0.910000 2.037793
v -1.365441 0.954941 1.992852
v -1.366136 0.953039 2.034920
v -0.173535 -1.000000 -1.990588
v -0.266050 -0.910000 -1.993900
v -0.151859 -0.910000 -2.080588
v -0.219272 -0.987976 -1.991637
v -0.162252 -0.987976 -2.034924
v -0.206540 -0.976297 -2.034063
v -0.242407 -0.910000 -2.037793
v -0.253230 -0.954941 -1.992852
v -0.230447 -0.953039 -2.034919
v -0.154295 -0.954941 -2.067959
v -0.200492 -0.910000 -2.069613
v -0.200938 -0.953039 -2.057321
v -0.173535 1.000000 -1.990588
v -0.151859 0.910000 -2.080588
v -0.266050 0.910000 -1.993900
v -0.162252 0.987976 -2.034924
v -0.219272 0.987976 -1.991637
v -0.206540 0.976297 -2.034063
v -0.200492 0.910000 -2.069613
v -0.154295 0.954941 -2.067959
v -0.200938 0.953039 -2.057321
v -0.253230 0.954941 -1.992852
v -0.242407 0.910000 -2.037793
v -0.230447 0.953039 -2.034919
v 1.284483 -1.000000 1.990588
v 1.378845 -0.910000 1.993900
v 1.313036 -0.910000 2.080588
v 1.330804 -0.987976 1.991636
v 1.297943 -0.987976 2.034924
v 1.341751 -0.976297 2.034063
v 1.379699 -0.910000 2.037793
v 1.365441 -0.954941 1.992852
v 1.366136 -0.953039 2.034919
v 1.308423 -0.954941 2.067959
v 1.355543 -0.910000 2.069613
v 1.349129 -0.953039 2.057321
v 1.284483 1.000000 1.990588
v 1.313036 0.910000 2.080588
v 1.378845 0.910000 1.993900
v 1.297943 0.987976 2.034924
v 1.330804 0.987976 1.991637
v 1.341751 0.976297 2.034064
v 1.355543 0.910000 2.069613
v 1.308423 0.954941 2.067959
v 1.349129 0.953039 2.057322
v 1.365441 0.954941 1.992852
v 1.379699 0.910000 2.037793
v 1.366136 0.953039 2.034920
v 0.173535 -1.000000 -1.990588
v 0.151859 -0.910000 -2.080588
v 0.266050 -0.910000 -1.993900
v 0.162252 -0.987976 -2.034924
v 0.219272 -0.987976 -1.991637
v 0.206540 -0.976297 -2.034063
v 0.200492 -0.910000 -2.069613
v 0.154295 -0.954941 -2.067959
v 0.200938 -0.953039 -2.057321
v 0.253230 -0.954941 -1.992852
v 0.242407 -0.910000 -2.037793
v 0.230447 -0.953039 -2.034919
v 0.173535 1.000000 -1.990588
v 0.266050 0.910000 -1.993900
v 0.151859 0.910000 -2.080588
v 0.219272 0.987976 -1.991637
v 0.162252 0.987976 -2.034924
v 0.206540 0.976297 -2.034063
v 0.242407 0.910000 -2.037793
v 0.253230 0.954941 -1.992852
v 0.230447 0.953039 -2.034919
v 0.154295 0.954941 -2.067959
v 0.200492 0.910000 -2.069613
v 0.200938 0.953039 -2.057321
vt 0.613750 0.758018
vt 0.386250 0.991982
vt 0.386250 0.758018
vt 0.613750 0.505208
vt 0.386250 0.744792
vt 0.386250 0.505208
vt 0.835435 0.505407
vt 0.634235 0.744593
vt 0.664565 0.505407
vt 0.613750 0.005208
vt 0.386250 0.244792
vt 0.386250 0.005208
vt 0.613750 0.296515
vt 0.386250 0.453485
vt 0.386250 0.296515
vt 0.133816 0.747257
vt 0.129820 0.744656
vt 0.134235 0.744593
vt 0.133429 0.750000
vt 0.129758 0.747205
vt 0.380870 0.995197
vt 0.380632 0.991571
vt 0.386250 0.995769
vt 0.380870 1.000000
vt 0.380870 0.003119
vt 0.386250 0.002748
vt 0.380632 0.005475
vt 0.375000 0.003547
vt 0.129803 0.750000
vt 0.125000 0.746880
vt 0.613750 0.991982
vt 0.619130 0.995197
vt 0.613750 0.995769
vt 0.619368 0.991571
vt 0.625000 0.994540
vt 0.870180 0.744656
vt 0.866184 0.747256
vt 0.865765 0.744593
vt 0.875000 0.744525
vt 0.870242 0.747205
vt 0.619130 0.003119
vt 0.619368 0.005475
vt 0.613750 0.000000
vt 0.613750 0.002748
vt 0.619130 1.000000
vt 0.164565 0.505407
vt 0.145743 0.502795
vt 0.167390 0.502743
vt 0.143859 0.505344
vt 0.125000 0.502368
vt 0.386250 0.247606
vt 0.380632 0.244933
vt 0.380870 0.271149
vt 0.380870 0.247632
vt 0.380632 0.295256
vt 0.386250 0.271380
vt 0.375000 0.291144
vt 0.146149 0.500000
vt 0.854257 0.502795
vt 0.856141 0.505344
vt 0.832610 0.502743
vt 0.853851 0.500000
vt 0.613750 0.271380
vt 0.619368 0.295256
vt 0.613750 0.247606
vt 0.619130 0.271149
vt 0.619368 0.244933
vt 0.613750 0.244792
vt 0.625000 0.245393
vt 0.619130 0.247632
vt 0.875000 0.502368
vt 0.370180 0.744656
vt 0.366184 0.747257
vt 0.365765 0.744593
vt 0.380632 0.744525
vt 0.370242 0.747205
vt 0.380870 0.746881
vt 0.386250 0.754231
vt 0.386250 0.747252
vt 0.380870 0.754803
vt 0.380632 0.758429
vt 0.375000 0.755460
vt 0.375000 0.746880
vt 0.370197 0.750000
vt 0.633816 0.747257
vt 0.629820 0.744656
vt 0.633429 0.750000
vt 0.629758 0.747205
vt 0.619130 0.754803
vt 0.619368 0.758429
vt 0.613750 0.754231
vt 0.619130 0.746881
vt 0.613750 0.744792
vt 0.613750 0.747252
vt 0.619368 0.744525
vt 0.629803 0.750000
vt 0.625000 0.746880
vt 0.335435 0.505407
vt 0.354257 0.502795
vt 0.356141 0.505344
vt 0.332610 0.502743
vt 0.353851 0.500000
vt 0.386250 0.478620
vt 0.380632 0.454744
vt 0.380870 0.502368
vt 0.380870 0.478851
vt 0.380632 0.505067
vt 0.386250 0.502394
vt 0.375000 0.502368
vt 0.645743 0.502795
vt 0.667390 0.502743
vt 0.643859 0.505344
vt 0.619130 0.502368
vt 0.613750 0.502394
vt 0.619368 0.505067
vt 0.613750 0.478620
vt 0.619368 0.454744
vt 0.613750 0.453485
vt 0.625000 0.458856
vt 0.619130 0.478851
vt 0.625000 0.502368
vt 0.646149 0.500000
vt 0.125000 0.505067
vt 0.386250 1.000000
vt 0.875000 0.505067
vt 0.329744 0.500000
vt 0.829744 0.500000
vt 0.375000 0.006082
vt 0.625000 0.990637
vt 0.875000 0.746880
vt 0.619130 0.000000
vt 0.375000 0.268254
vt 0.625000 0.247956
vt 0.375000 0.759363
vt 0.625000 0.481746
vt 0.125000 0.744525
vt 0.613750 1.000000
vt 0.170256 0.500000
vt 0.670256 0.500000
vt 0.366571 0.750000
vt 0.866571 0.750000
vn 0.1289 0.1421 0.9814
vn -0.1289 -0.1421 0.9814
vn 0.1289 -0.1421 0.9814
vn 0.9204 0.1320 -0.3680
vn 0.9799 -0.1421 -0.1396
vn 0.9204 -0.1320 -0.3680
vn -0.1225 0.9792 -0.1614
vn 0.1247 0.9877 0.0946
vn 0.1225 0.9792 -0.1614
vn -0.9799 0.1421 -0.1396
vn -0.9204 -0.1320 -0.3680
vn -0.9799 -0.1421 -0.1396
vn -0.1071 0.1320 -0.9854
vn 0.1071 -0.1320 -0.9854
vn -0.1071 -0.1320 -0.9854
vn -0.1216 -0.8766 0.4655
vn -0.4810 -0.8766 -0.0079
vn -0.1247 -0.9877 0.0946
vn -0.1218 -0.5113 0.8507
vn -0.4605 -0.8159 0.3496
vn -0.4828 -0.4973 0.7208
vn -0.5452 -0.1498 0.8248
vn -0.8241 -0.4973 0.2712
vn -0.9410 -0.1498 0.3035
vn -0.8521 -0.5113 -0.1113
vn -0.1289 0.1421 0.9814
vn -0.4828 0.4973 0.7208
vn -0.5452 0.1498 0.8248
vn -0.1218 0.5113 0.8507
vn -0.4605 0.8159 0.3496
vn -0.4810 0.8766 -0.0079
vn -0.1216 0.8766 0.4655
vn -0.1247 0.9877 0.0946
vn -0.8521 0.5113 -0.1113
vn -0.8241 0.4973 0.2712
vn -0.9410 0.1498 0.3035
vn -0.1225 -0.9792 -0.1614
vn -0.3988 -0.7515 -0.5254
vn -0.1084 -0.8536 -0.5094
vn -0.4616 -0.8536 -0.2413
vn -0.6833 -0.4376 -0.5845
vn -0.7581 -0.1213 -0.6407
vn -0.8063 -0.4908 -0.3300
vn -0.3793 -0.4376 -0.8152
vn -0.1012 -0.4908 -0.8654
vn -0.4133 -0.1213 -0.9024
vn -0.3988 0.7515 -0.5254
vn -0.4616 0.8536 -0.2413
vn -0.1084 0.8536 -0.5094
vn -0.3793 0.4376 -0.8152
vn -0.4133 0.1213 -0.9024
vn -0.1012 0.4908 -0.8654
vn -0.7581 0.1213 -0.6407
vn -0.8063 0.4908 -0.3300
vn -0.9204 0.1320 -0.3680
vn -0.6833 0.4376 -0.5845
vn 0.4810 -0.8766 -0.0079
vn 0.1216 -0.8766 0.4655
vn 0.1247 -0.9877 0.0946
vn 0.8521 -0.5113 -0.1113
vn 0.4605 -0.8159 0.3496
vn 0.8241 -0.4973 0.2712
vn 0.5452 -0.1498 0.8248
vn 0.9410 -0.1498 0.3035
vn 0.4828 -0.4973 0.7208
vn 0.1218 -0.5113 0.8507
vn 0.1216 0.8766 0.4655
vn 0.4810 0.8766 -0.0079
vn 0.1218 0.5113 0.8507
vn 0.4605 0.8159 0.3496
vn 0.4828 0.4973 0.7208
vn 0.5452 0.1498 0.8248
vn 0.8241 0.4973 0.2712
vn 0.9799 0.1421 -0.1396
vn 0.9410 0.1498 0.3035
vn 0.8521 0.5113 -0.1113
vn 0.1225 -0.9792 -0.1614
vn 0.3988 -0.7515 -0.5254
vn 0.4616 -0.8536 -0.2413
vn 0.1084 -0.8536 -0.5094
vn 0.3793 -0.4376 -0.8152
vn 0.4133 -0.1213 -0.9024
vn 0.1012 -0.4908 -0.8654
vn 0.6833 -0.4376 -0.5845
vn 0.8063 -0.4908 -0.3300
vn 0.7581 -0.1213 -0.6407
vn 0.3988 0.7515 -0.5254
vn 0.1084 0.8536 -0.5094
vn 0.4616 0.8536 -0.2413
vn 0.6833 0.4376 -0.5845
vn 0.7581 0.1213 -0.6407
vn 0.8063 0.4908 -0.3300
vn 0.4133 0.1213 -0.9024
vn 0.1012 0.4908 -0.8654
vn 0.1071 0.1320 -0.9854
vn 0.3793 0.4376 -0.8152
usemtl Yellow_SlicedCheese01
s 1
f 62/1/1 2/2/2 51/3/3
f 86/4/4 50/5/5 75/6/6
f 37/7/7 61/8/8 85/9/9
f 15/10/10 26/11/11 3/12/12
f 38/13/13 74/14/14 27/15/15
f 4/16/16 5/17/17 1/18/18
f 8/19/19 6/20/20 4/16/16
f 2/2/2 9/21/21 8/22/19
f 7/23/22 12/24/23 9/21/21
f 3/12/12 12/25/23 11/26/24
f 10/27/25 6/28/20 12/25/23
f 6/20/20 9/29/21 12/30/23
f 13/31/26 18/32/27 17/33/28
f 16/34/29 21/35/30 18/32/27
f 19/36/31 20/37/32 14/38/33
f 23/39/34 21/40/30 19/36/31
f 15/10/10 24/41/35 23/42/34
f 17/43/28 24/41/35 22/44/36
f 18/32/27 21/35/30 24/45/35
f 25/46/37 30/47/38 29/48/39
f 28/49/40 33/50/41 30/47/38
f 31/51/42 32/52/43 26/11/11
f 31/51/42 36/53/44 33/54/41
f 34/55/45 35/56/46 27/15/15
f 29/57/39 36/53/44 34/55/45
f 30/47/38 33/50/41 36/58/44
f 37/7/7 42/59/47 41/60/48
f 40/61/49 45/62/50 42/59/47
f 43/63/51 44/64/52 38/13/13
f 47/65/53 45/66/50 43/63/51
f 46/67/54 47/65/53 39/68/55
f 41/69/48 48/70/56 46/67/54
f 42/59/47 45/62/50 48/71/56
f 52/72/57 53/73/58 49/74/59
f 56/75/60 54/76/61 52/72/57
f 50/5/5 57/77/62 56/75/60
f 59/78/63 57/77/62 55/79/64
f 51/3/3 60/80/65 59/78/63
f 58/81/66 54/82/61 60/80/65
f 54/76/61 57/83/62 60/84/65
f 64/85/67 65/86/68 61/8/8
f 68/87/69 66/88/70 64/85/67
f 62/1/1 69/89/71 68/90/69
f 67/91/72 72/92/73 69/89/71
f 63/93/74 72/92/73 71/94/75
f 70/95/76 66/88/70 72/92/73
f 66/88/70 69/96/71 72/97/73
f 73/98/77 78/99/78 77/100/79
f 76/101/80 81/102/81 78/99/78
f 79/103/82 80/104/83 74/14/14
f 79/103/82 84/105/84 81/106/81
f 82/107/85 83/108/86 75/6/6
f 77/100/79 84/105/84 82/107/85
f 78/99/78 81/102/81 84/109/84
f 85/9/9 90/110/87 89/111/88
f 88/112/89 93/113/90 90/110/87
f 91/114/91 92/115/92 86/4/4
f 95/116/93 93/113/90 91/114/91
f 94/117/94 95/116/93 87/118/95
f 89/119/88 96/120/96 94/117/94
f 90/110/87 93/121/90 96/122/96
f 1/18/18 28/49/40 25/46/37
f 5/17/17 32/123/43 28/49/40
f 10/27/25 26/11/11 32/52/43
f 13/31/26 7/23/22 2/2/2
f 17/33/28 11/124/24 7/23/22
f 22/44/36 3/12/12 11/26/24
f 14/38/33 41/60/48 19/36/31
f 19/36/31 46/125/54 23/39/34
f 23/42/34 39/68/55 15/10/10
f 27/15/15 43/63/51 38/13/13
f 35/56/46 47/65/53 43/63/51
f 31/51/42 39/68/55 47/65/53
f 25/46/37 76/101/80 73/98/77
f 29/48/39 80/126/83 76/101/80
f 34/55/45 74/14/14 80/104/83
f 85/9/9 40/61/49 37/7/7
f 89/111/88 44/127/52 40/61/49
f 94/117/94 38/13/13 44/64/52
f 75/6/6 91/114/91 86/4/4
f 83/108/86 95/116/93 91/114/91
f 79/103/82 87/118/95 95/116/93
f 49/74/59 77/100/79 52/72/57
f 52/72/57 82/107/85 56/75/60
f 56/75/60 75/6/6 50/5/5
f 61/8/8 88/112/89 85/9/9
f 65/86/68 92/115/92 88/112/89
f 70/95/76 86/4/4 92/115/92
f 51/3/3 67/91/72 62/1/1
f 59/78/63 71/94/75 67/91/72
f 55/79/64 63/93/74 71/94/75
f 49/74/59 4/16/16 1/18/18
f 53/73/58 8/19/19 4/16/16
f 58/81/66 2/2/2 8/22/19
f 14/38/33 64/85/67 61/8/8
f 20/37/32 68/87/69 64/85/67
f 16/34/29 62/1/1 68/90/69
f 73/98/77 1/18/18 25/46/37
f 62/1/1 13/31/26 2/2/2
f 86/4/4 63/93/74 50/5/5
f 37/7/7 14/38/33 61/8/8
f 15/10/10 39/68/55 26/11/11
f 38/13/13 87/118/95 74/14/14
f 4/16/16 6/20/20 5/17/17
f 8/19/19 9/29/21 6/20/20
f 2/2/2 7/23/22 9/21/21
f 7/23/22 11/124/24 12/24/23
f 3/12/12 10/27/25 12/25/23
f 10/27/25 5/128/17 6/28/20
f 13/31/26 16/34/29 18/32/27
f 16/34/29 20/129/32 21/35/30
f 19/36/31 21/40/30 20/37/32
f 23/39/34 24/130/35 21/40/30
f 15/10/10 22/44/36 24/41/35
f 17/43/28 18/131/27 24/41/35
f 25/46/37 28/49/40 30/47/38
f 28/49/40 32/123/43 33/50/41
f 31/51/42 33/54/41 32/52/43
f 31/51/42 35/56/46 36/53/44
f 34/55/45 36/53/44 35/56/46
f 29/57/39 30/132/38 36/53/44
f 37/7/7 40/61/49 42/59/47
f 40/61/49 44/127/52 45/62/50
f 43/63/51 45/66/50 44/64/52
f 47/65/53 48/70/56 45/66/50
f 46/67/54 48/70/56 47/65/53
f 41/69/48 42/133/47 48/70/56
f 52/72/57 54/76/61 53/73/58
f 56/75/60 57/77/62 54/76/61
f 50/5/5 55/79/64 57/77/62
f 59/78/63 60/80/65 57/77/62
f 51/3/3 58/81/66 60/80/65
f 58/81/66 53/134/58 54/82/61
f 64/85/67 66/88/70 65/86/68
f 68/87/69 69/96/71 66/88/70
f 62/1/1 67/91/72 69/89/71
f 67/91/72 71/94/75 72/92/73
f 63/93/74 70/95/76 72/92/73
f 70/95/76 65/86/68 66/88/70
f 73/98/77 76/101/80 78/99/78
f 76/101/80 80/126/83 81/102/81
f 79/103/82 81/106/81 80/104/83
f 79/103/82 83/108/86 84/105/84
f 82/107/85 84/105/84 83/108/86
f 77/100/79 78/99/78 84/105/84
f 85/9/9 88/112/89 90/110/87
f 88/112/89 92/115/92 93/113/90
f 91/114/91 93/113/90 92/115/92
f 95/116/93 96/120/96 93/113/90
f 94/117/94 96/120/96 95/116/93
f 89/119/88 90/135/87 96/120/96
f 1/18/18 5/17/17 28/49/40
f 5/17/17 10/136/25 32/123/43
f 10/27/25 3/12/12 26/11/11
f 13/31/26 17/33/28 7/23/22
f 17/33/28 22/137/36 11/124/24
f 22/44/36 15/10/10 3/12/12
f 14/38/33 37/7/7 41/60/48
f 19/36/31 41/60/48 46/125/54
f 23/42/34 46/67/54 39/68/55
f 27/15/15 35/56/46 43/63/51
f 35/56/46 31/51/42 47/65/53
f 31/51/42 26/11/11 39/68/55
f 25/46/37 29/48/39 76/101/80
f 29/48/39 34/138/45 80/126/83
f 34/55/45 27/15/15 74/14/14
f 85/9/9 89/111/88 40/61/49
f 89/111/88 94/139/94 44/127/52
f 94/117/94 87/118/95 38/13/13
f 75/6/6 83/108/86 91/114/91
f 83/108/86 79/103/82 95/116/93
f 79/103/82 74/14/14 87/118/95
f 49/74/59 73/98/77 77/100/79
f 52/72/57 77/100/79 82/107/85
f 56/75/60 82/107/85 75/6/6
f 61/8/8 65/86/68 88/112/89
f 65/86/68 70/95/76 92/115/92
f 70/95/76 63/93/74 86/4/4
f 51/3/3 59/78/63 67/91/72
f 59/78/63 55/79/64 71/94/75
f 55/79/64 50/5/5 63/93/74
f 49/74/59 53/73/58 4/16/16
f 53/73/58 58/140/66 8/19/19
f 58/81/66 51/3/3 2/2/2
f 14/38/33 20/37/32 64/85/67
f 20/37/32 16/141/29 68/87/69
f 16/34/29 13/31/26 62/1/1
f 73/98/77 49/74/59 1/18/18
